<?xml version="1.0" standalone="no"?>
<!DOCTYPE svg PUBLIC "-//W3C//DTD SVG 20010904//EN"
 "http://www.w3.org/TR/2001/REC-SVG-20010904/DTD/svg10.dtd">
<svg version="1.0" xmlns="http://www.w3.org/2000/svg"
 width="700.000000pt" height="700.000000pt" viewBox="0 0 700.000000 700.000000"
 preserveAspectRatio="xMidYMid meet">
<metadata>
Created by potrace 1.14, written by Peter Selinger 2001-2017
</metadata>
<g transform="translate(0.000000,700.000000) scale(0.100000,-0.100000)"
fill="#000000" stroke="none">
<path d="M0 3500 l0 -3500 3500 0 3500 0 0 3500 0 3500 -3500 0 -3500 0 0
-3500z m3209 1907 c361 -357 462 -418 554 -337 49 43 74 109 102 276 25 142
27 150 71 211 48 67 68 83 86 65 5 -5 24 -43 42 -83 41 -93 162 -303 276 -479
149 -231 215 -353 249 -463 18 -59 19 -78 11 -135 -14 -99 -13 -177 3 -164 30
25 356 216 438 257 249 125 751 465 860 582 89 96 219 299 240 376 12 44 36
49 45 10 12 -46 -13 -133 -70 -248 -72 -142 -128 -212 -218 -273 -101 -67
-464 -290 -759 -465 -376 -222 -559 -344 -559 -373 0 -19 6 -21 334 -115 338
-97 534 -161 600 -197 39 -21 58 -42 92 -97 51 -84 72 -102 144 -115 30 -6 61
-17 70 -25 13 -13 12 -19 -5 -51 -10 -19 -28 -40 -39 -47 -12 -6 -71 -16 -132
-23 -218 -26 -294 -74 -294 -187 0 -126 77 -392 139 -478 43 -61 95 -160 105
-202 9 -39 -8 -42 -114 -22 -68 14 -93 15 -103 6 -9 -7 -16 -43 -20 -104 -3
-50 -15 -121 -26 -157 -18 -60 -27 -72 -111 -150 l-92 -86 -9 -89 c-13 -131
-33 -185 -68 -185 -9 0 -46 29 -81 66 -80 80 -144 124 -182 124 -65 0 -128 47
-128 96 0 44 -89 122 -123 108 -8 -3 -29 -38 -47 -77 -17 -40 -51 -106 -74
-147 -24 -41 -81 -144 -127 -228 -158 -288 -234 -356 -268 -242 -25 86 -72 75
-208 -46 -46 -41 -100 -85 -120 -98 -42 -28 -174 -54 -403 -80 -207 -23 -238
-24 -257 -11 -16 12 -15 18 11 82 27 68 27 69 11 111 -11 25 -38 60 -68 87
l-50 44 12 43 c16 53 133 288 251 503 119 217 145 310 99 356 -36 36 -80 15
-264 -120 -172 -126 -203 -135 -216 -57 -3 20 -9 39 -12 42 -3 4 -93 -41 -199
-99 -230 -126 -394 -206 -428 -209 -20 -2 -25 2 -28 22 -11 96 -25 102 -272
111 -107 4 -208 12 -225 19 -16 6 -72 43 -123 81 -113 85 -175 119 -217 119
-38 0 -58 19 -53 51 2 17 19 27 90 50 95 31 182 76 228 119 l30 28 -6 93 c-4
69 -11 101 -25 121 -10 15 -19 34 -19 42 0 24 63 51 188 81 65 17 147 45 195
69 73 36 84 46 103 86 33 69 61 90 139 101 70 10 172 48 250 93 62 37 59 50
-12 42 -61 -6 -347 6 -548 25 -78 7 -180 26 -292 55 -95 24 -181 44 -192 44
-29 0 -49 37 -59 107 -7 51 -15 69 -46 103 -52 57 -310 301 -402 378 -41 34
-74 67 -74 72 0 25 53 28 460 23 234 -2 445 -1 470 4 39 7 45 12 48 35 4 37
-21 42 -168 35 -76 -3 -122 -1 -128 5 -21 21 34 91 115 147 55 38 114 52 258
62 169 12 310 39 367 71 58 32 88 86 88 161 0 79 -20 117 -99 185 -36 31 -94
85 -128 118 -54 54 -62 67 -67 110 -11 88 -45 218 -70 264 -13 25 -38 72 -56
106 -43 78 -38 99 23 91 23 -4 117 -29 209 -56 198 -59 262 -73 467 -100 300
-41 347 -29 357 84 6 68 10 85 21 85 3 0 108 -100 232 -223z"/>
</g>
</svg>
